# xmcd
#
# Track frame offsets:
#	150
#	11392
#	25385
#	41520
#	60289
#	77065
#	91029
#	109260
#	125002
#	137560
#	154880
#	172415
#
# Disc length: 2535 seconds
# Revision: 0
# Processed by: cddbd v1.5.2PL0 Copyright (c) Steve Scherf et al.
# Submitted via: dBpowerAMP V12.0
#
DISCID=9509e50c
DTITLE=Various Artist - Το ασήμι του μεσημεριού
DYEAR=1996
DGENRE=Έντεχνο
TTITLE0=Νίκη Ξυλούρη - Μικροί χαιρετισμοί
TTITLE1=Νίκη Ξυλούρη - Ρουμπαμπάμ
TTITLE2=Νίκη Ξυλούρη - Το πανηγύρι της Άνοιξης
TTITLE3=Νίκη Ξυλούρη - Τζίτζικας τα μεσημέρια
TTITLE4=Νίκη Ξυλούρη - Των ποταμών οι ωδές
TTITLE5=Ορχηστρικό - Ο ήλιος του μεσονυχτίου 
TTITLE6=Νίκη Ξυλούρη - Παρουσία
TTITLE7=Νίκη Ξυλούρη - Μινιατούρα
TTITLE8=Νίκη Ξυλούρη - Στο κρύο και στη ζέστη
TTITLE9=Νίκη Ξυλούρη - Σαν τα μάρμαρα στον ήλιο
TTITLE10=Ορχηστρικό - Αποκρίσεις (Συνομιλία μ' ένα μουσικό)
TTITLE11=Νίκη Ξυλούρη - Της θάλασσας τα όνειρα
EXTD=
EXTT0=
EXTT1=
EXTT2=
EXTT3=
EXTT4=
EXTT5=
EXTT6=
EXTT7=
EXTT8=
EXTT9=
EXTT10=
EXTT11=
PLAYORDER=
